<svg xmlns="http://www.w3.org/2000/svg" width="130" height="130" viewBox="0 0 130 130">
  <g id="Group_3054" data-name="Group 3054" transform="translate(-10725 -6386)">
    <circle id="Ellipse_692" data-name="Ellipse 692" cx="65" cy="65" r="65" transform="translate(10725 6386)" fill="#fff"/>
    <g id="Group_3052" data-name="Group 3052" transform="translate(10729.995 6390.998)">
      <g id="Group_3051" data-name="Group 3051" transform="translate(0.004 0.002)">
        <path id="Path_7017" data-name="Path 7017" d="M51.793,24.067A27.725,27.725,0,1,0,79.518,51.794,27.726,27.726,0,0,0,51.793,24.067m5.333,18.21,1.583,1.077a.677.677,0,0,0,.679,0l1.639-.791a.649.649,0,0,1,.793.142,12.907,12.907,0,0,1,1.329,1.656.665.665,0,0,1-.059.795l-1.207,1.376a.669.669,0,0,0-.127.661L62.379,49a.67.67,0,0,0,.519.43l1.805.3a.669.669,0,0,1,.557.579,4.977,4.977,0,0,1,.072,1.042v1.086a.683.683,0,0,1-.519.62l-1.774.4a.678.678,0,0,0-.492.462l-.541,1.815a.7.7,0,0,0,.169.661l1.292,1.3a.658.658,0,0,1,.111.789,13.87,13.87,0,0,1-1.211,1.778.664.664,0,0,1-.8.183l-1.68-.721a.654.654,0,0,0-.669.085l-1.518,1.166a.655.655,0,0,0-.247.628l.268,1.815a.634.634,0,0,1-.373.7,13.259,13.259,0,0,1-2.021.818.678.678,0,0,1-.737-.307l-.935-1.588a.666.666,0,0,0-.587-.324l-1.916.056a.641.641,0,0,0-.572.356l-.849,1.584a.656.656,0,0,1-.713.348,13.008,13.008,0,0,1-2.063-.608.662.662,0,0,1-.411-.676l.173-1.831a.672.672,0,0,0-.284-.612L44.851,60.25a.661.661,0,0,0-.664-.048L42.546,61a.658.658,0,0,1-.793-.134,14.116,14.116,0,0,1-1.316-1.712.657.657,0,0,1,.067-.795l1.215-1.376a.667.667,0,0,0,.127-.661l-.64-1.8a.661.661,0,0,0-.513-.437l-1.811-.3a.666.666,0,0,1-.548-.579,7.466,7.466,0,0,1-.078-1V51.077a.667.667,0,0,1,.523-.62l1.79-.4a.67.67,0,0,0,.486-.463l.548-1.83a.68.68,0,0,0-.161-.661L40.157,45.8a.654.654,0,0,1-.109-.789,13.558,13.558,0,0,1,1.219-1.77.648.648,0,0,1,.792-.183l1.689.729a.66.66,0,0,0,.67-.085l1.517-1.167a.644.644,0,0,0,.257-.619l-.284-1.847a.657.657,0,0,1,.371-.7,13.283,13.283,0,0,1,2.029-.721.653.653,0,0,1,.729.307l.937,1.584a.665.665,0,0,0,.587.328l1.916-.048a.651.651,0,0,0,.571-.356l.859-1.588a.638.638,0,0,1,.713-.34,13.783,13.783,0,0,1,1.959.579.662.662,0,0,1,.419.672l-.167,1.88a.667.667,0,0,0,.295.612m6.756,21.895-.111.122c-.287.352-.553.728-.858,1.061-.8.874-1.608,1.757-2.474,2.6a11.089,11.089,0,0,1-2.248,1.722,10.923,10.923,0,0,1-1.144.575,4.713,4.713,0,0,1-2.761.28,5.711,5.711,0,0,1-1.753-.593.661.661,0,0,1-.1-.052,2,2,0,0,1,.315-.126,9.377,9.377,0,0,0,2.5-1.207,34.575,34.575,0,0,0,2.956-2.272,8.982,8.982,0,0,1,4.073-1.843c.482-.093.965-.161,1.447-.239ZM50.837,33.831a9.318,9.318,0,0,0-2.507,1.207,34.788,34.788,0,0,0-2.956,2.272A8.918,8.918,0,0,1,41.3,39.15c-.483.1-.965.161-1.446.243l-.15.02.108-.117c.294-.354.557-.733.86-1.062.806-.874,1.608-1.757,2.477-2.6a11.037,11.037,0,0,1,2.246-1.726,11.686,11.686,0,0,1,1.14-.571,4.725,4.725,0,0,1,2.768-.283,5.77,5.77,0,0,1,1.749.591c.035.02.064.036.1.052a2.347,2.347,0,0,1-.311.13m-5.208-1.454a12.474,12.474,0,0,0-3.2,2.179c-.085.072-.164.154-.247.231-.8.741-1.606,1.512-2.409,2.26-.4.377-.806.746-1.2,1.1a6.768,6.768,0,0,1-2.69,1.271h0c-.037.012-.076.02-.113.033-.164.037-.325.078-.487.113-.087.016-.172.037-.258.053-.146.029-.283.052-.4.068l-.02,0a3.01,3.01,0,0,0-.539.066c.105-.167.167-.272.218-.352.49-.713,1.088-1.337,1.633-2.006l0,0h0c.459-.563.919-1.125,1.39-1.681a13.736,13.736,0,0,1,3.325-3.02,7.841,7.841,0,0,1,3.16-1.021,5.917,5.917,0,0,1,2.183.179,3.017,3.017,0,0,1,.416.161c-.3.146-.53.264-.761.369M62.217,72.988a5.139,5.139,0,0,1-.414.307,12.788,12.788,0,0,1-1.984,1.151l0,0a8.782,8.782,0,0,1-.974.425c-.085.029-.164.057-.25.085a11.267,11.267,0,0,1-1.908.539,11.491,11.491,0,0,1-2.642.206c-.038,0-.085,0-.128-.008A17,17,0,0,1,50.2,75l-4.186-1.547a15.213,15.213,0,0,0,1.8,1.223c.128.072.255.142.381.21A14.629,14.629,0,0,0,50.91,76l0,0c.167.048.519.142.531.142.274.072.546.137.83.19.466.093.934.162,1.413.21.078.008.157.012.233.02a.5.5,0,0,1-.063.037.387.387,0,0,1-.057.035,2.408,2.408,0,0,1-.288.15,7.972,7.972,0,0,1-1.323.494c-4.626,1.312-10.345-1.106-14.1-3.52a30.515,30.515,0,0,1-5.28-4.305,24.647,24.647,0,0,1-4.282-5.916c-.082-.162-.161-.324-.243-.494a25.15,25.15,0,0,1-1.36-3.45,22.658,22.658,0,0,1-1.036-5.622c-.051-1.166-.122-2.334-.074-3.487a27.383,27.383,0,0,1,.713-5.4,26.721,26.721,0,0,1,1.527-4.451c.145-.328.3-.643.457-.968.025-.056.053-.109.082-.165A26.1,26.1,0,0,1,38.163,29.47a.825.825,0,0,1-.044.085.99.99,0,0,1-.064.1c-.684.8-1.349,1.608-2.05,2.414a27.651,27.651,0,0,0-4.139,5.953,21.878,21.878,0,0,0-2.358,7.7,19.61,19.61,0,0,0,.98,8.331,18.623,18.623,0,0,0,2.216,4.637.174.174,0,0,0,.022.037A17.945,17.945,0,0,0,34,60.408a1.007,1.007,0,0,0,.085.1c.029.033.057.066.085.1a13.949,13.949,0,0,0,2.779,2.54,4.733,4.733,0,0,0,1.158.511l.057.012c.061.02.122.031.186.048a20.3,20.3,0,0,1,4.944,1.831c1.187.665,2.373,1.329,3.556,2.021.423.251.847.5,1.27.762.771.49,1.563.956,2.369,1.393,1.178.645,2.39,1.236,3.624,1.761a15.95,15.95,0,0,0,4.379,1.24c.418.045.829.081,1.247.113a22.341,22.341,0,0,0,2.284.025c.126,0,.253-.012.377-.02-.056.049-.119.1-.179.142M59.8,71.919a6.02,6.02,0,0,1-2.187-.179,3.235,3.235,0,0,1-.416-.161c.3-.146.531-.268.763-.369a12.336,12.336,0,0,0,3.2-2.183c.079-.072.161-.15.242-.231.806-.737,1.608-1.51,2.41-2.256.4-.377.806-.746,1.2-1.1A6.7,6.7,0,0,1,67.7,64.172l.005,0c.037-.008.076-.02.113-.029.162-.041.324-.076.485-.113.089-.02.175-.041.259-.053.147-.027.284-.052.411-.068l.019,0a3,3,0,0,0,.534-.066c-.1.167-.161.272-.218.352-.485.71-1.09,1.337-1.632,2.006v0h-.008q-.686.844-1.385,1.677a13.639,13.639,0,0,1-3.329,3.02A7.848,7.848,0,0,1,59.8,71.919M77.054,58.5a26.976,26.976,0,0,1-1.527,4.451c-.147.324-.3.643-.459.968-.023.056-.052.109-.081.165a26.109,26.109,0,0,1-9.566,10.029c.016-.029.029-.053.045-.082a.794.794,0,0,1,.063-.1c.687-.806,1.35-1.608,2.05-2.414a27.661,27.661,0,0,0,4.14-5.953,22,22,0,0,0,2.361-7.7,19.72,19.72,0,0,0-.979-8.331,18.816,18.816,0,0,0-2.216-4.637.111.111,0,0,1-.023-.041,19.6,19.6,0,0,0-1.274-1.689c-.027-.033-.051-.064-.085-.1a1.231,1.231,0,0,1-.085-.1,14.017,14.017,0,0,0-2.779-2.544,4.7,4.7,0,0,0-1.158-.507.235.235,0,0,1-.057-.016c-.059-.016-.12-.031-.182-.044a20.22,20.22,0,0,1-4.95-1.835c-1.187-.66-2.369-1.324-3.556-2.021-.421-.247-.842-.5-1.269-.758q-1.157-.735-2.368-1.4c-1.18-.64-2.387-1.232-3.627-1.757a16.7,16.7,0,0,0-2.395-.851,17.215,17.215,0,0,0-1.981-.389c-.416-.049-.832-.081-1.248-.113-.761-.041-1.516-.061-2.284-.029-.124,0-.25.016-.375.02.055-.045.117-.093.176-.138.134-.113.276-.21.418-.311a13.192,13.192,0,0,1,1.98-1.147l.005,0a8.857,8.857,0,0,1,.971-.425c.086-.029.171-.061.253-.085a11.558,11.558,0,0,1,4.547-.746c.046,0,.09,0,.131,0a17.193,17.193,0,0,1,3.709.7l4.189,1.547a14.961,14.961,0,0,0-1.8-1.219c-.127-.072-.255-.145-.382-.21a14.5,14.5,0,0,0-2.708-1.114l-.005,0c-.165-.048-.518-.141-.526-.145-.276-.07-.55-.134-.832-.187-.468-.093-.939-.161-1.416-.21-.076-.008-.154-.016-.235-.02.025-.012.045-.029.067-.041a.56.56,0,0,1,.055-.031c.1-.057.19-.105.285-.154A8.433,8.433,0,0,1,51.4,26.3c4.626-1.308,10.347,1.11,14.094,3.524a30.464,30.464,0,0,1,5.28,4.305,24.593,24.593,0,0,1,4.283,5.912l.242.494a25.579,25.579,0,0,1,1.361,3.45,22.627,22.627,0,0,1,1.036,5.626c.048,1.167.126,2.334.076,3.487a27.285,27.285,0,0,1-.715,5.4" transform="translate(8.206 8.207)" fill="#d1000f"/>
        <path id="Path_7018" data-name="Path 7018" d="M76,75.788h-2.17a.479.479,0,0,1-.274-.842l.621-.539a2.869,2.869,0,0,1,1.876-.71h2.168a.481.481,0,0,1,.277.845l-.623.537a2.859,2.859,0,0,1-1.876.71" transform="translate(25.641 25.754)" fill="#d1000f"/>
        <path id="Path_7019" data-name="Path 7019" d="M78.089,73.6l-2.167.15a.48.48,0,0,1-.333-.821l.587-.582a2.836,2.836,0,0,1,1.819-.836l2.164-.153a.479.479,0,0,1,.335.821l-.584.58a2.858,2.858,0,0,1-1.82.84" transform="translate(26.393 24.899)" fill="#d1000f"/>
        <path id="Path_7020" data-name="Path 7020" d="M80.013,71.262l-2.152.3a.481.481,0,0,1-.389-.8l.541-.619a2.852,2.852,0,0,1,1.757-.961l2.152-.3a.479.479,0,0,1,.391.793l-.542.624a2.866,2.866,0,0,1-1.757.961" transform="translate(27.09 24.237)" fill="#d1000f"/>
        <path id="Path_7021" data-name="Path 7021" d="M81.761,68.8l-2.126.445a.477.477,0,0,1-.442-.765l.5-.657a2.872,2.872,0,0,1,1.685-1.084l2.125-.448a.479.479,0,0,1,.445.766l-.5.657A2.907,2.907,0,0,1,81.761,68.8" transform="translate(27.726 23.322)" fill="#d1000f"/>
        <path id="Path_7022" data-name="Path 7022" d="M83.325,66.217l-2.084.6a.482.482,0,0,1-.5-.735l.452-.69a2.877,2.877,0,0,1,1.606-1.2l2.086-.6a.479.479,0,0,1,.5.732l-.452.691a2.871,2.871,0,0,1-1.609,1.2" transform="translate(28.299 22.368)" fill="#d1000f"/>
        <path id="Path_7023" data-name="Path 7023" d="M84.7,63.526l-2.036.741a.479.479,0,0,1-.549-.7l.4-.718a2.856,2.856,0,0,1,1.521-1.307l2.037-.74a.48.48,0,0,1,.55.7l-.4.72A2.838,2.838,0,0,1,84.7,63.526" transform="translate(28.809 21.381)" fill="#d1000f"/>
        <path id="Path_7024" data-name="Path 7024" d="M85.887,60.744,83.9,61.63a.481.481,0,0,1-.6-.658l.352-.743a2.851,2.851,0,0,1,1.424-1.412l1.983-.883a.48.48,0,0,1,.6.657l-.352.747a2.853,2.853,0,0,1-1.423,1.406" transform="translate(29.249 20.366)" fill="#d1000f"/>
        <path id="Path_7025" data-name="Path 7025" d="M86.868,57.888,84.95,58.9a.477.477,0,0,1-.638-.61l.295-.769a2.9,2.9,0,0,1,1.323-1.509L87.847,55a.479.479,0,0,1,.639.613l-.295.767a2.867,2.867,0,0,1-1.323,1.507" transform="translate(29.62 19.327)" fill="#d1000f"/>
        <path id="Path_7026" data-name="Path 7026" d="M87.643,54.962,85.8,56.113a.482.482,0,0,1-.681-.569l.243-.786a2.873,2.873,0,0,1,1.217-1.6l1.838-1.147a.477.477,0,0,1,.68.565l-.242.785a2.851,2.851,0,0,1-1.213,1.6" transform="translate(29.92 18.27)" fill="#d1000f"/>
        <path id="Path_7027" data-name="Path 7027" d="M88.206,51.983,86.45,53.258a.478.478,0,0,1-.718-.515l.187-.8a2.861,2.861,0,0,1,1.1-1.675l1.756-1.275a.479.479,0,0,1,.718.518l-.188.8a2.857,2.857,0,0,1-1.1,1.673" transform="translate(30.147 17.2)" fill="#d1000f"/>
        <path id="Path_7028" data-name="Path 7028" d="M88.557,48.973,86.9,50.366a.48.48,0,0,1-.755-.468l.13-.811a2.855,2.855,0,0,1,.979-1.749l1.663-1.394a.477.477,0,0,1,.751.466l-.127.814a2.882,2.882,0,0,1-.982,1.751" transform="translate(30.299 16.122)" fill="#d1000f"/>
        <path id="Path_7029" data-name="Path 7029" d="M88.694,45.937l-1.561,1.507a.479.479,0,0,1-.785-.412l.074-.821a2.854,2.854,0,0,1,.856-1.815l1.559-1.506a.479.479,0,0,1,.784.415l-.074.821a2.834,2.834,0,0,1-.853,1.811" transform="translate(30.376 15.041)" fill="#d1000f"/>
        <path id="Path_7030" data-name="Path 7030" d="M88.615,42.894,87.162,44.5a.478.478,0,0,1-.81-.355l.015-.825a2.878,2.878,0,0,1,.726-1.869l1.451-1.611a.48.48,0,0,1,.811.36l-.016.822a2.871,2.871,0,0,1-.725,1.867" transform="translate(30.378 13.961)" fill="#d1000f"/>
        <path id="Path_7031" data-name="Path 7031" d="M88.333,39.862,87,41.567a.478.478,0,0,1-.836-.3l-.042-.825a2.88,2.88,0,0,1,.6-1.913l1.337-1.707a.479.479,0,0,1,.834.3l.04.825a2.867,2.867,0,0,1-.6,1.914" transform="translate(30.292 12.89)" fill="#d1000f"/>
        <path id="Path_7032" data-name="Path 7032" d="M87.847,36.849l-1.214,1.8a.481.481,0,0,1-.856-.24l-.1-.818a2.849,2.849,0,0,1,.459-1.951l1.215-1.8a.478.478,0,0,1,.852.24l.1.818a2.871,2.871,0,0,1-.459,1.95" transform="translate(30.124 11.832)" fill="#d1000f"/>
        <path id="Path_7033" data-name="Path 7033" d="M87.149,33.877l-1.084,1.876a.48.48,0,0,1-.868-.183l-.157-.808a2.875,2.875,0,0,1,.328-1.979l1.083-1.875a.477.477,0,0,1,.866.182l.157.807a2.884,2.884,0,0,1-.324,1.98" transform="translate(29.879 10.792)" fill="#d1000f"/>
        <path id="Path_7034" data-name="Path 7034" d="M86.249,30.951,85.3,32.9a.479.479,0,0,1-.875-.122l-.213-.8a2.863,2.863,0,0,1,.18-2l.954-1.95a.479.479,0,0,1,.877.119l.213.8a2.882,2.882,0,0,1-.184,1.995" transform="translate(29.558 9.775)" fill="#d1000f"/>
        <path id="Path_7035" data-name="Path 7035" d="M85.149,28.1l-.812,2.013a.479.479,0,0,1-.883-.063l-.269-.778a2.848,2.848,0,0,1,.042-2l.814-2.011a.477.477,0,0,1,.882.06l.269.778a2.867,2.867,0,0,1-.042,2" transform="translate(29.161 8.785)" fill="#d1000f"/>
        <path id="Path_7036" data-name="Path 7036" d="M83.853,25.316l-.675,2.065a.478.478,0,0,1-.885,0l-.317-.761a2.852,2.852,0,0,1-.1-2l.669-2.065a.48.48,0,0,1,.888,0l.322.756a2.86,2.86,0,0,1,.094,2" transform="translate(28.694 7.827)" fill="#d1000f"/>
        <path id="Path_7037" data-name="Path 7037" d="M82.368,22.638l-.526,2.1a.479.479,0,0,1-.883.066l-.374-.737a2.871,2.871,0,0,1-.235-1.988l.526-2.106a.481.481,0,0,1,.886-.063l.371.735a2.861,2.861,0,0,1,.235,1.989" transform="translate(28.155 6.909)" fill="#d1000f"/>
        <path id="Path_7038" data-name="Path 7038" d="M80.7,20.061,80.326,22.2a.481.481,0,0,1-.879.127l-.422-.707a2.846,2.846,0,0,1-.371-1.969l.374-2.137a.481.481,0,0,1,.878-.127l.422.707a2.885,2.885,0,0,1,.375,1.97" transform="translate(27.549 6.03)" fill="#d1000f"/>
        <path id="Path_7039" data-name="Path 7039" d="M78.864,17.6l-.228,2.156a.478.478,0,0,1-.866.186l-.47-.675a2.865,2.865,0,0,1-.512-1.938l.228-2.156a.478.478,0,0,1,.864-.188l.474.677a2.84,2.84,0,0,1,.509,1.938" transform="translate(26.877 5.199)" fill="#d1000f"/>
        <path id="Path_7040" data-name="Path 7040" d="M76.858,15.276l-.074,2.168a.48.48,0,0,1-.852.247l-.513-.642a2.834,2.834,0,0,1-.646-1.9l.075-2.168a.479.479,0,0,1,.852-.246l.516.64a2.838,2.838,0,0,1,.642,1.9" transform="translate(26.146 4.591)" fill="#d1000f"/>
        <path id="Path_7041" data-name="Path 7041" d="M74.723,13.092l.074,2.17a.479.479,0,0,1-.83.307l-.561-.6a2.891,2.891,0,0,1-.778-1.847l-.075-2.17a.484.484,0,0,1,.837-.307l.557.6a2.874,2.874,0,0,1,.777,1.847" transform="translate(25.335 3.834)" fill="#d1000f"/>
        <path id="Path_7042" data-name="Path 7042" d="M72.458,11.063l.227,2.156a.48.48,0,0,1-.808.365l-.6-.564a2.878,2.878,0,0,1-.9-1.79l-.227-2.156a.481.481,0,0,1,.808-.365l.6.565a2.858,2.858,0,0,1,.9,1.789" transform="translate(24.681 3.137)" fill="#d1000f"/>
        <path id="Path_7043" data-name="Path 7043" d="M70.057,9.195l.375,2.137a.482.482,0,0,1-.785.419l-.638-.519a2.882,2.882,0,0,1-1.024-1.723l-.374-2.136a.478.478,0,0,1,.78-.421l.64.52a2.881,2.881,0,0,1,1.025,1.722" transform="translate(23.786 2.503)" fill="#d1000f"/>
        <path id="Path_7044" data-name="Path 7044" d="M67.53,7.5,68.056,9.6a.48.48,0,0,1-.752.471l-.67-.475A2.862,2.862,0,0,1,65.49,7.956l-.527-2.106a.482.482,0,0,1,.754-.474l.67.474A2.874,2.874,0,0,1,67.53,7.5" transform="translate(22.85 1.934)" fill="#d1000f"/>
        <path id="Path_7045" data-name="Path 7045" d="M64.892,5.983l.67,2.063a.48.48,0,0,1-.716.524l-.7-.427a2.855,2.855,0,0,1-1.253-1.563l-.67-2.063a.478.478,0,0,1,.714-.522l.7.427a2.848,2.848,0,0,1,1.255,1.561" transform="translate(21.88 1.435)" fill="#d1000f"/>
        <path id="Path_7046" data-name="Path 7046" d="M62.155,4.658l.815,2.009a.482.482,0,0,1-.68.573l-.729-.375A2.848,2.848,0,0,1,60.2,5.393l-.814-2.011a.479.479,0,0,1,.675-.573l.736.377a2.846,2.846,0,0,1,1.359,1.473" transform="translate(20.878 1.008)" fill="#d1000f"/>
        <path id="Path_7047" data-name="Path 7047" d="M59.331,3.524l.952,1.95a.48.48,0,0,1-.635.619l-.758-.328a2.851,2.851,0,0,1-1.46-1.374l-.952-1.95a.479.479,0,0,1,.636-.616l.756.325a2.846,2.846,0,0,1,1.46,1.374" transform="translate(19.849 0.654)" fill="#d1000f"/>
        <path id="Path_7048" data-name="Path 7048" d="M56.436,2.588l1.087,1.877a.48.48,0,0,1-.593.661l-.778-.27A2.86,2.86,0,0,1,54.6,3.59L53.516,1.712a.479.479,0,0,1,.59-.662l.777.272a2.858,2.858,0,0,1,1.554,1.266" transform="translate(18.8 0.375)" fill="#d1000f"/>
        <path id="Path_7049" data-name="Path 7049" d="M53.481,1.858l1.217,1.8a.482.482,0,0,1-.546.7l-.793-.214A2.886,2.886,0,0,1,51.72,2.987l-1.213-1.8a.482.482,0,0,1,.543-.7l.8.22a2.853,2.853,0,0,1,1.634,1.154" transform="translate(17.736 0.172)" fill="#d1000f"/>
        <path id="Path_7050" data-name="Path 7050" d="M50.484,1.336,51.82,3.044a.479.479,0,0,1-.494.736l-.806-.158a2.854,2.854,0,0,1-1.715-1.04L47.471.871a.479.479,0,0,1,.493-.736L48.77.3a2.843,2.843,0,0,1,1.714,1.039" transform="translate(16.661 0.047)" fill="#d1000f"/>
        <path id="Path_7051" data-name="Path 7051" d="M47.459,1.023l1.451,1.611a.479.479,0,0,1-.444.767l-.814-.1a2.873,2.873,0,0,1-1.785-.919L44.416.77A.479.479,0,0,1,44.86,0l.817.1a2.855,2.855,0,0,1,1.783.918" transform="translate(15.58 0.001)" fill="#d1000f"/>
        <path id="Path_7052" data-name="Path 7052" d="M44.417.923l1.563,1.51a.479.479,0,0,1-.389.795l-.821-.046a2.854,2.854,0,0,1-1.842-.789L41.367.885a.48.48,0,0,1,.385-.8l.822.046a2.871,2.871,0,0,1,1.843.791" transform="translate(14.499 0.032)" fill="#d1000f"/>
        <path id="Path_7053" data-name="Path 7053" d="M41.377,1.038l1.662,1.4a.478.478,0,0,1-.33.819l-.823.011a2.835,2.835,0,0,1-1.891-.66L38.332,1.213A.477.477,0,0,1,38.66.392L39.483.38a2.876,2.876,0,0,1,1.894.658" transform="translate(13.423 0.14)" fill="#d1000f"/>
        <path id="Path_7054" data-name="Path 7054" d="M38.352,1.384l1.756,1.271a.481.481,0,0,1-.272.845l-.822.068a2.864,2.864,0,0,1-1.935-.526L35.326,1.768A.481.481,0,0,1,35.6.921l.819-.068a2.867,2.867,0,0,1,1.935.531" transform="translate(12.358 0.309)" fill="#d1000f"/>
        <path id="Path_7055" data-name="Path 7055" d="M35.355,1.936,37.2,3.083a.483.483,0,0,1-.213.864l-.814.126A2.845,2.845,0,0,1,34.2,3.681L32.362,2.533a.481.481,0,0,1,.21-.863l.815-.124a2.861,2.861,0,0,1,1.968.391" transform="translate(11.306 0.552)" fill="#d1000f"/>
        <path id="Path_7056" data-name="Path 7056" d="M32.4,2.7l1.916,1.015a.481.481,0,0,1-.153.875l-.8.184a2.85,2.85,0,0,1-1.988-.255l-1.92-1.017a.477.477,0,0,1,.152-.87l.8-.19A2.884,2.884,0,0,1,32.4,2.7" transform="translate(10.277 0.868)" fill="#d1000f"/>
        <path id="Path_7057" data-name="Path 7057" d="M29.51,3.676l1.984.878a.483.483,0,0,1-.087.886l-.792.238a2.859,2.859,0,0,1-2-.113l-1.981-.881A.481.481,0,0,1,26.72,3.8l.789-.239a2.871,2.871,0,0,1,2,.116" transform="translate(9.272 1.256)" fill="#d1000f"/>
        <path id="Path_7058" data-name="Path 7058" d="M26.69,4.848l2.04.743a.479.479,0,0,1-.029.886l-.77.292a2.852,2.852,0,0,1-2.006.027l-2.037-.74a.481.481,0,0,1,.029-.888l.77-.294a2.875,2.875,0,0,1,2-.027" transform="translate(8.298 1.712)" fill="#d1000f"/>
        <path id="Path_7059" data-name="Path 7059" d="M23.96,6.22l2.085.6a.48.48,0,0,1,.036.886l-.748.343a2.878,2.878,0,0,1-2,.168l-2.091-.6a.48.48,0,0,1-.031-.886l.748-.345a2.854,2.854,0,0,1,2-.167" transform="translate(7.359 2.235)" fill="#d1000f"/>
        <path id="Path_7060" data-name="Path 7060" d="M21.326,7.78l2.123.452a.479.479,0,0,1,.1.881l-.721.4a2.878,2.878,0,0,1-1.981.306l-2.122-.452a.48.48,0,0,1-.1-.882l.725-.4a2.872,2.872,0,0,1,1.979-.3" transform="translate(6.459 2.822)" fill="#d1000f"/>
        <path id="Path_7061" data-name="Path 7061" d="M18.807,9.523l2.148.3a.479.479,0,0,1,.158.871l-.694.448a2.855,2.855,0,0,1-1.953.441l-2.152-.3a.479.479,0,0,1-.156-.871l.691-.451a2.883,2.883,0,0,1,1.957-.44" transform="translate(5.604 3.471)" fill="#d1000f"/>
        <path id="Path_7062" data-name="Path 7062" d="M16.414,11.44l2.164.15a.479.479,0,0,1,.216.86l-.661.49a2.849,2.849,0,0,1-1.917.58l-2.164-.15a.479.479,0,0,1-.217-.86l.66-.5a2.85,2.85,0,0,1,1.92-.575" transform="translate(4.985 4.179)" fill="#d1000f"/>
        <path id="Path_7063" data-name="Path 7063" d="M14.156,13.516h2.171a.482.482,0,0,1,.276.847l-.623.537a2.858,2.858,0,0,1-1.875.71H11.937a.48.48,0,0,1-.279-.842l.623-.538a2.868,2.868,0,0,1,1.875-.713" transform="translate(4.2 4.94)" fill="#d1000f"/>
        <path id="Path_7064" data-name="Path 7064" d="M12.046,15.792l2.166-.15a.481.481,0,0,1,.337.821l-.59.58a2.858,2.858,0,0,1-1.816.837l-2.167.153a.48.48,0,0,1-.335-.822l.584-.579a2.852,2.852,0,0,1,1.82-.84" transform="translate(3.472 5.717)" fill="#d1000f"/>
        <path id="Path_7065" data-name="Path 7065" d="M10.1,18.2l2.151-.3a.478.478,0,0,1,.388.795l-.541.62a2.849,2.849,0,0,1-1.757.961l-2.149.306a.483.483,0,0,1-.393-.8l.543-.619A2.864,2.864,0,0,1,10.1,18.2" transform="translate(2.806 6.299)" fill="#d1000f"/>
        <path id="Path_7066" data-name="Path 7066" d="M8.311,20.743l2.122-.451a.478.478,0,0,1,.445.766l-.5.657A2.872,2.872,0,0,1,8.695,22.8l-2.122.449a.477.477,0,0,1-.445-.763l.5-.655a2.856,2.856,0,0,1,1.684-1.086" transform="translate(2.204 7.137)" fill="#d1000f"/>
        <path id="Path_7067" data-name="Path 7067" d="M6.7,23.4l2.086-.6a.482.482,0,0,1,.5.735l-.452.69a2.864,2.864,0,0,1-1.607,1.2l-2.085.6a.481.481,0,0,1-.5-.733L5.1,24.6A2.869,2.869,0,0,1,6.7,23.4" transform="translate(1.669 8.016)" fill="#d1000f"/>
        <path id="Path_7068" data-name="Path 7068" d="M5.284,26.158l2.04-.739a.478.478,0,0,1,.546.7l-.4.72a2.826,2.826,0,0,1-1.521,1.305l-2.036.744a.481.481,0,0,1-.552-.7l.4-.721a2.877,2.877,0,0,1,1.522-1.308" transform="translate(1.205 8.933)" fill="#d1000f"/>
        <path id="Path_7069" data-name="Path 7069" d="M4.05,29.005l1.981-.879a.481.481,0,0,1,.6.658l-.351.746a2.861,2.861,0,0,1-1.424,1.409l-1.984.883a.479.479,0,0,1-.593-.657l.35-.747A2.88,2.88,0,0,1,4.05,29.005" transform="translate(0.815 9.881)" fill="#d1000f"/>
        <path id="Path_7070" data-name="Path 7070" d="M3.013,31.931l1.918-1.017a.48.48,0,0,1,.64.613l-.3.769A2.854,2.854,0,0,1,3.95,33.8L2.036,34.819a.476.476,0,0,1-.638-.61l.292-.771a2.912,2.912,0,0,1,1.323-1.506" transform="translate(0.498 10.856)" fill="#d1000f"/>
        <path id="Path_7071" data-name="Path 7071" d="M2.182,34.916l1.839-1.151a.482.482,0,0,1,.683.568l-.242.788a2.894,2.894,0,0,1-1.215,1.6L1.4,37.864A.477.477,0,0,1,.727,37.3l.239-.784a2.872,2.872,0,0,1,1.217-1.6" transform="translate(0.257 11.853)" fill="#d1000f"/>
        <path id="Path_7072" data-name="Path 7072" d="M1.554,37.947l1.757-1.277a.48.48,0,0,1,.718.52l-.187.8a2.876,2.876,0,0,1-1.1,1.678L.989,40.945a.479.479,0,0,1-.72-.517l.186-.8a2.889,2.889,0,0,1,1.1-1.678" transform="translate(0.093 12.868)" fill="#d1000f"/>
        <path id="Path_7073" data-name="Path 7073" d="M1.135,41.01,2.8,39.616a.48.48,0,0,1,.754.467L3.42,40.9a2.84,2.84,0,0,1-.978,1.749L.779,44.038a.477.477,0,0,1-.751-.464l.128-.814a2.882,2.882,0,0,1,.979-1.751" transform="translate(0.007 13.896)" fill="#d1000f"/>
        <path id="Path_7074" data-name="Path 7074" d="M.932,44.092l1.559-1.51A.481.481,0,0,1,3.276,43l-.072.819a2.871,2.871,0,0,1-.856,1.813L.784,47.139A.478.478,0,0,1,0,46.725L.078,45.9a2.835,2.835,0,0,1,.855-1.811" transform="translate(0 14.933)" fill="#d1000f"/>
        <path id="Path_7075" data-name="Path 7075" d="M.937,47.174,2.39,45.562a.48.48,0,0,1,.811.356l-.019.826a2.843,2.843,0,0,1-.728,1.865L1,50.223a.479.479,0,0,1-.81-.359l.018-.823a2.84,2.84,0,0,1,.725-1.867" transform="translate(0.07 15.972)" fill="#d1000f"/>
        <path id="Path_7076" data-name="Path 7076" d="M1.169,50.242,2.5,48.532a.48.48,0,0,1,.834.3l.044.827a2.875,2.875,0,0,1-.6,1.91l-1.337,1.71a.48.48,0,0,1-.834-.3l-.042-.823a2.868,2.868,0,0,1,.6-1.913" transform="translate(0.207 17.007)" fill="#d1000f"/>
        <path id="Path_7077" data-name="Path 7077" d="M1.618,53.285l1.213-1.8a.477.477,0,0,1,.852.238l.1.821a2.875,2.875,0,0,1-.459,1.947l-1.217,1.8a.479.479,0,0,1-.852-.242l-.1-.817a2.858,2.858,0,0,1,.462-1.95" transform="translate(0.414 18.036)" fill="#d1000f"/>
        <path id="Path_7078" data-name="Path 7078" d="M2.277,56.283,3.362,54.4a.482.482,0,0,1,.87.184l.156.808a2.852,2.852,0,0,1-.326,1.977L2.978,59.251a.48.48,0,0,1-.868-.182l-.154-.81a2.88,2.88,0,0,1,.322-1.977" transform="translate(0.695 19.053)" fill="#d1000f"/>
        <path id="Path_7079" data-name="Path 7079" d="M3.148,59.223,4.1,57.27a.479.479,0,0,1,.875.122l.21.8a2.861,2.861,0,0,1-.183,2l-.952,1.948a.481.481,0,0,1-.879-.12l-.21-.8a2.848,2.848,0,0,1,.186-2" transform="translate(1.046 20.051)" fill="#d1000f"/>
        <path id="Path_7080" data-name="Path 7080" d="M4.222,62.093l.811-2.011a.481.481,0,0,1,.888.06l.266.778a2.859,2.859,0,0,1-.045,2l-.812,2.01a.478.478,0,0,1-.883-.06L4.178,64.1a2.886,2.886,0,0,1,.044-2" transform="translate(1.469 21.028)" fill="#d1000f"/>
        <path id="Path_7081" data-name="Path 7081" d="M5.5,64.875l.672-2.062a.477.477,0,0,1,.885,0l.32.759a2.866,2.866,0,0,1,.1,2L6.8,67.633a.48.48,0,0,1-.886,0l-.32-.761a2.855,2.855,0,0,1-.1-2" transform="translate(1.958 21.977)" fill="#d1000f"/>
        <path id="Path_7082" data-name="Path 7082" d="M6.962,67.56l.526-2.1a.479.479,0,0,1,.885-.064l.375.732a2.9,2.9,0,0,1,.232,1.992l-.527,2.107a.48.48,0,0,1-.883.061L7.2,69.55a2.884,2.884,0,0,1-.236-1.989" transform="translate(2.514 22.896)" fill="#d1000f"/>
        <path id="Path_7083" data-name="Path 7083" d="M8.615,70.131,8.992,68a.481.481,0,0,1,.879-.127l.425.709a2.872,2.872,0,0,1,.371,1.968l-.375,2.137a.481.481,0,0,1-.879.127L8.99,72.1a2.892,2.892,0,0,1-.375-1.97" transform="translate(3.133 23.778)" fill="#d1000f"/>
        <path id="Path_7084" data-name="Path 7084" d="M10.445,72.579l.229-2.156a.479.479,0,0,1,.867-.187l.47.676a2.856,2.856,0,0,1,.511,1.938l-.228,2.157a.479.479,0,0,1-.866.186l-.471-.676a2.887,2.887,0,0,1-.512-1.938" transform="translate(3.811 24.62)" fill="#d1000f"/>
        <path id="Path_7085" data-name="Path 7085" d="M12.447,74.892l.078-2.168a.478.478,0,0,1,.849-.247l.519.642a2.855,2.855,0,0,1,.64,1.9l-.075,2.168a.478.478,0,0,1-.849.246l-.518-.642a2.86,2.86,0,0,1-.644-1.9" transform="translate(4.548 25.244)" fill="#d1000f"/>
        <path id="Path_7086" data-name="Path 7086" d="M14.626,77.055l-.075-2.17a.479.479,0,0,1,.832-.306l.561.6a2.887,2.887,0,0,1,.777,1.847l.072,2.167a.479.479,0,0,1-.833.3l-.558-.6a2.866,2.866,0,0,1-.776-1.845" transform="translate(5.317 26.022)" fill="#d1000f"/>
        <path id="Path_7087" data-name="Path 7087" d="M16.972,79.057,16.744,76.9a.479.479,0,0,1,.808-.363l.6.564a2.861,2.861,0,0,1,.9,1.79l.228,2.159a.481.481,0,0,1-.808.362l-.6-.565a2.839,2.839,0,0,1-.9-1.789" transform="translate(5.89 26.745)" fill="#d1000f"/>
        <path id="Path_7088" data-name="Path 7088" d="M19.45,80.892l-.377-2.136a.481.481,0,0,1,.784-.418l.639.518a2.866,2.866,0,0,1,1.02,1.725l.378,2.134a.48.48,0,0,1-.78.421l-.642-.52a2.866,2.866,0,0,1-1.023-1.723" transform="translate(6.708 27.412)" fill="#d1000f"/>
        <path id="Path_7089" data-name="Path 7089" d="M22.052,82.551l-.526-2.106a.48.48,0,0,1,.752-.471l.672.475a2.854,2.854,0,0,1,1.142,1.645l.527,2.1a.479.479,0,0,1-.751.47l-.675-.47a2.863,2.863,0,0,1-1.142-1.648" transform="translate(7.568 28.017)" fill="#d1000f"/>
        <path id="Path_7090" data-name="Path 7090" d="M24.762,84.023l-.67-2.063a.478.478,0,0,1,.714-.522l.706.425a2.881,2.881,0,0,1,1.253,1.561l.67,2.067a.482.482,0,0,1-.718.523l-.7-.429a2.859,2.859,0,0,1-1.253-1.562" transform="translate(8.467 28.558)" fill="#d1000f"/>
        <path id="Path_7091" data-name="Path 7091" d="M27.569,85.3l-.814-2.009a.48.48,0,0,1,.677-.573l.731.375a2.824,2.824,0,0,1,1.361,1.473l.814,2.01a.479.479,0,0,1-.676.573l-.735-.377A2.846,2.846,0,0,1,27.569,85.3" transform="translate(9.4 29.033)" fill="#d1000f"/>
        <path id="Path_7092" data-name="Path 7092" d="M30.457,86.386l-.95-1.95a.479.479,0,0,1,.635-.619l.756.326a2.878,2.878,0,0,1,1.462,1.374l.949,1.95a.479.479,0,0,1-.636.616l-.756-.324a2.857,2.857,0,0,1-1.46-1.374" transform="translate(10.362 29.439)" fill="#d1000f"/>
        <path id="Path_7093" data-name="Path 7093" d="M33.416,87.262l-1.084-1.877a.477.477,0,0,1,.59-.66l.777.269a2.854,2.854,0,0,1,1.553,1.268l1.084,1.877a.478.478,0,0,1-.593.66l-.774-.269a2.85,2.85,0,0,1-1.553-1.268" transform="translate(11.35 29.775)" fill="#d1000f"/>
        <path id="Path_7094" data-name="Path 7094" d="M36.424,87.93l-1.214-1.794a.48.48,0,0,1,.545-.7l.792.216a2.868,2.868,0,0,1,1.64,1.159l1.213,1.8a.48.48,0,0,1-.543.7l-.795-.217a2.847,2.847,0,0,1-1.637-1.159" transform="translate(12.356 30.038)" fill="#d1000f"/>
        <path id="Path_7095" data-name="Path 7095" d="M39.476,88.39l-1.334-1.705a.479.479,0,0,1,.492-.739l.807.16a2.866,2.866,0,0,1,1.716,1.039l1.334,1.71a.48.48,0,0,1-.493.737l-.807-.161a2.842,2.842,0,0,1-1.715-1.04" transform="translate(13.38 30.227)" fill="#d1000f"/>
        <path id="Path_7096" data-name="Path 7096" d="M42.549,88.635,41.1,87.024a.479.479,0,0,1,.442-.769l.815.1a2.852,2.852,0,0,1,1.783.919l1.453,1.613a.481.481,0,0,1-.444.769l-.817-.1a2.87,2.87,0,0,1-1.782-.916" transform="translate(14.412 30.343)" fill="#d1000f"/>
        <path id="Path_7097" data-name="Path 7097" d="M45.634,88.664l-1.559-1.51a.476.476,0,0,1,.386-.795l.821.046a2.862,2.862,0,0,1,1.843.786l1.559,1.51a.478.478,0,0,1-.385.8l-.822-.045a2.878,2.878,0,0,1-1.843-.791" transform="translate(15.451 30.382)" fill="#d1000f"/>
        <path id="Path_7098" data-name="Path 7098" d="M48.712,88.481l-1.662-1.4a.477.477,0,0,1,.328-.819l.825-.012a2.837,2.837,0,0,1,1.891.662l1.666,1.393a.478.478,0,0,1-.332.821l-.823.011a2.859,2.859,0,0,1-1.893-.657" transform="translate(16.489 30.342)" fill="#d1000f"/>
        <path id="Path_7099" data-name="Path 7099" d="M51.773,88.1l-1.76-1.275a.481.481,0,0,1,.273-.844l.825-.068a2.837,2.837,0,0,1,1.929.527l1.76,1.274a.477.477,0,0,1-.274.84l-.821.074a2.872,2.872,0,0,1-1.932-.527" transform="translate(17.522 30.214)" fill="#d1000f"/>
        <path id="Path_7100" data-name="Path 7100" d="M54.793,87.506l-1.838-1.154a.477.477,0,0,1,.21-.858l.815-.126a2.865,2.865,0,0,1,1.968.392l1.839,1.148a.48.48,0,0,1-.212.862l-.815.126a2.878,2.878,0,0,1-1.968-.391" transform="translate(18.546 30.007)" fill="#d1000f"/>
        <path id="Path_7101" data-name="Path 7101" d="M57.769,86.705l-1.917-1.016a.48.48,0,0,1,.15-.874l.8-.184a2.882,2.882,0,0,1,1.994.253l1.914,1.02a.477.477,0,0,1-.152.871l-.8.183a2.841,2.841,0,0,1-1.987-.253" transform="translate(19.555 29.723)" fill="#d1000f"/>
        <path id="Path_7102" data-name="Path 7102" d="M60.676,85.706l-1.984-.885a.479.479,0,0,1,.089-.881l.789-.239a2.883,2.883,0,0,1,2,.115l1.981.881a.482.482,0,0,1-.087.885l-.788.238a2.873,2.873,0,0,1-2-.113" transform="translate(20.543 29.365)" fill="#d1000f"/>
        <path id="Path_7103" data-name="Path 7103" d="M63.506,84.51l-2.04-.746a.479.479,0,0,1,.025-.885l.773-.294a2.863,2.863,0,0,1,2-.023l2.039.739a.481.481,0,0,1-.025.888l-.773.294a2.875,2.875,0,0,1-2,.027" transform="translate(21.508 28.932)" fill="#d1000f"/>
        <path id="Path_7104" data-name="Path 7104" d="M66.241,83.118l-2.086-.6a.482.482,0,0,1-.037-.888l.75-.344a2.882,2.882,0,0,1,2-.165l2.088.6a.481.481,0,0,1,.033.888l-.75.344a2.85,2.85,0,0,1-2,.167" transform="translate(22.443 28.429)" fill="#d1000f"/>
        <path id="Path_7105" data-name="Path 7105" d="M68.871,81.541l-2.122-.451a.479.479,0,0,1-.094-.882l.72-.4a2.862,2.862,0,0,1,1.984-.3l2.122.451a.48.48,0,0,1,.1.882l-.725.4a2.866,2.866,0,0,1-1.98.3" transform="translate(23.344 27.856)" fill="#d1000f"/>
        <path id="Path_7106" data-name="Path 7106" d="M71.386,79.792l-2.152-.3a.477.477,0,0,1-.156-.871l.692-.446a2.86,2.86,0,0,1,1.954-.445l2.149.3a.48.48,0,0,1,.158.871l-.694.448a2.859,2.859,0,0,1-1.953.445" transform="translate(24.206 27.217)" fill="#d1000f"/>
        <path id="Path_7107" data-name="Path 7107" d="M73.765,77.869,71.6,77.716a.48.48,0,0,1-.216-.86l.66-.493a2.847,2.847,0,0,1,1.917-.575l2.166.149a.48.48,0,0,1,.218.86l-.664.5a2.866,2.866,0,0,1-1.916.576" transform="translate(24.838 26.516)" fill="#d1000f"/>
        <path id="Path_7108" data-name="Path 7108" d="M40.625,10.975l3.169-2.28-1.226-3.74,3.149,2.309,3.177-2.321L47.671,8.649l3.19,2.306-3.9-.018L45.75,14.683,44.56,10.965Z" transform="translate(14.257 1.807)" fill="#d1000f" fill-rule="evenodd"/>
        <path id="Path_7109" data-name="Path 7109" d="M27.647,15.8,29.7,12.479,27.139,9.492l3.792.929,2.048-3.36.288,3.893,3.829.909L33.483,13.34l.318,3.923-2.522-2.981Z" transform="translate(9.525 2.581)" fill="#d1000f" fill-rule="evenodd"/>
        <path id="Path_7110" data-name="Path 7110" d="M17.736,24.972l.628-3.853-3.511-1.778,3.859-.593.606-3.889,1.756,3.486,3.886-.625-2.775,2.749,1.8,3.5-3.471-1.789Z" transform="translate(5.213 5.216)" fill="#d1000f" fill-rule="evenodd"/>
        <path id="Path_7111" data-name="Path 7111" d="M11.88,37.1l-.894-3.8L7.062,33,10.4,30.976l-.929-3.825L12.429,29.7l3.351-2.065-1.512,3.6,3,2.549-3.892-.325Z" transform="translate(2.58 9.53)" fill="#d1000f" fill-rule="evenodd"/>
        <path id="Path_7112" data-name="Path 7112" d="M10.975,50.861l-2.28-3.169-3.74,1.226,2.309-3.149L4.942,42.592l3.707,1.223,2.306-3.19-.018,3.9,3.745,1.207-3.718,1.189Z" transform="translate(1.806 14.258)" fill="#d1000f" fill-rule="evenodd"/>
        <path id="Path_7113" data-name="Path 7113" d="M15.8,63.764l-3.319-2.055L9.492,64.272l.929-3.792-3.36-2.048,3.893-.288.909-3.829,1.477,3.613,3.923-.318-2.981,2.522Z" transform="translate(2.58 19.064)" fill="#d1000f" fill-rule="evenodd"/>
        <path id="Path_7114" data-name="Path 7114" d="M24.972,73.715l-3.853-.628L19.341,76.6l-.593-3.859-3.889-.606,3.486-1.756-.625-3.886,2.749,2.775,3.5-1.8-1.789,3.471Z" transform="translate(5.215 23.336)" fill="#d1000f" fill-rule="evenodd"/>
        <path id="Path_7115" data-name="Path 7115" d="M37.1,79.6l-3.8.894L33,84.416l-2.025-3.339-3.825.929L29.7,79.049,27.636,75.7l3.6,1.512,2.549-3L33.459,78.1Z" transform="translate(9.529 25.942)" fill="#d1000f" fill-rule="evenodd"/>
        <path id="Path_7116" data-name="Path 7116" d="M50.861,80.379l-3.169,2.28,1.226,3.74L45.769,84.09l-3.177,2.321L43.815,82.7,40.625,80.4l3.9.018,1.207-3.745,1.189,3.718Z" transform="translate(14.257 26.841)" fill="#d1000f" fill-rule="evenodd"/>
        <path id="Path_7117" data-name="Path 7117" d="M63.764,75.679,61.709,79l2.563,2.986-3.792-.929-2.048,3.36-.288-3.893-3.829-.909,3.613-1.477-.318-3.923,2.522,2.981Z" transform="translate(19.063 25.944)" fill="#d1000f" fill-rule="evenodd"/>
        <path id="Path_7118" data-name="Path 7118" d="M73.715,66.481l-.628,3.853L76.6,72.112l-3.859.593-.606,3.889-1.756-3.486-3.886.625,2.775-2.749-1.8-3.5,3.471,1.789Z" transform="translate(23.335 23.333)" fill="#d1000f" fill-rule="evenodd"/>
        <path id="Path_7119" data-name="Path 7119" d="M79.6,54.309l.894,3.8,3.924.3-3.339,2.025.928,3.825-2.958-2.549L75.7,63.773l1.51-3.6-3-2.549,3.892.325Z" transform="translate(25.941 19.062)" fill="#d1000f" fill-rule="evenodd"/>
        <path id="Path_7120" data-name="Path 7120" d="M80.379,40.625l2.28,3.169,3.74-1.226L84.09,45.717l2.321,3.177L82.7,47.671,80.4,50.861l.018-3.9L76.67,45.75l3.718-1.189Z" transform="translate(26.84 14.258)" fill="#d1000f" fill-rule="evenodd"/>
        <path id="Path_7121" data-name="Path 7121" d="M75.679,27.647,79,29.7l2.986-2.563-.929,3.792,3.36,2.048-3.893.288L79.614,37.1l-1.477-3.613-3.923.318,2.981-2.522Z" transform="translate(25.942 9.526)" fill="#d1000f" fill-rule="evenodd"/>
        <path id="Path_7122" data-name="Path 7122" d="M66.481,17.736l3.853.628,1.778-3.511.593,3.859,3.889.606-3.486,1.756.625,3.886-2.749-2.775-3.5,1.8,1.789-3.471Z" transform="translate(23.332 5.214)" fill="#d1000f" fill-rule="evenodd"/>
        <path id="Path_7123" data-name="Path 7123" d="M54.309,11.881l3.8-.894.3-3.924L60.433,10.4l3.825-.929-2.549,2.958,2.065,3.349-3.6-1.51-2.549,3,.325-3.892Z" transform="translate(19.061 2.582)" fill="#d1000f" fill-rule="evenodd"/>
        <path id="Path_7124" data-name="Path 7124" d="M52.044,21.768A30.275,30.275,0,1,0,82.32,52.045,30.309,30.309,0,0,0,52.044,21.768m0,59.664A29.389,29.389,0,1,1,81.431,52.045,29.423,29.423,0,0,1,52.044,81.432" transform="translate(7.956 7.956)" fill="#d1000f"/>
        <path id="Path_7125" data-name="Path 7125" d="M54.905,13.938A40.967,40.967,0,1,0,95.875,54.907,41.011,41.011,0,0,0,54.905,13.938m0,81.019a40.051,40.051,0,1,1,40.05-40.05,40.1,40.1,0,0,1-40.05,40.05" transform="translate(5.094 5.095)" fill="#d1000f"/>
        <path id="Path_7126" data-name="Path 7126" d="M51.768,41.524A7.247,7.247,0,1,0,51.1,51.751h0a7.249,7.249,0,0,0,.665-10.227m-4.954,8.271a3.781,3.781,0,0,1-1.718.474h-.2a3.952,3.952,0,0,1-1.584-7.556,3.445,3.445,0,0,1,.467-.183,4.018,4.018,0,0,1,4.54,1.7,3.165,3.165,0,0,0-3.662-.795,4.63,4.63,0,0,0-.425.239,3.162,3.162,0,0,0,1.7,5.821,3.051,3.051,0,0,0,.61-.057,3.134,3.134,0,0,0,1.755-.98,4.069,4.069,0,0,1-1.479,1.337m3.969-3.43.223.307.616.855-1.37-.453-.842,1.162,0-1.438L48.05,46.34l1.364-.433.016-1.434.356.5.482.664,1.37-.433Z" transform="translate(13.69 13.685)" fill="#d1000f"/>
        <path id="Path_7127" data-name="Path 7127" d="M44.763,69.471a1.458,1.458,0,1,0,1.458,1.458,1.458,1.458,0,0,0-1.458-1.458" transform="translate(15.236 24.444)" fill="#d1000f"/>
        <path id="Path_7128" data-name="Path 7128" d="M27.9,60.907l-.781-.89L23.94,62.8,23,61.728l-.744.655L24.894,65.4l.748-.651-.922-1.055Z" transform="translate(7.822 21.1)" fill="#d1000f"/>
        <path id="Path_7129" data-name="Path 7129" d="M25.361,58.978a.678.678,0,0,0-.991-.13.671.671,0,0,0-.157.983.716.716,0,0,0,1.148-.853" transform="translate(8.47 20.66)" fill="#d1000f"/>
        <path id="Path_7130" data-name="Path 7130" d="M24.834,56.856a3.285,3.285,0,0,0-.89-1.023l-.7.631a2.907,2.907,0,0,1,.66.752,1.556,1.556,0,0,1-.579,2.313,1.569,1.569,0,0,1-2.342-.518,2.553,2.553,0,0,1-.355-.946l-.923.283a3.106,3.106,0,0,0,.474,1.221,2.659,2.659,0,0,0,3.851.983,2.484,2.484,0,0,0,.8-3.7" transform="translate(6.928 19.63)" fill="#d1000f"/>
        <path id="Path_7131" data-name="Path 7131" d="M22.96,55.039a.716.716,0,0,0-1.29.619.716.716,0,0,0,1.29-.619" transform="translate(7.6 19.235)" fill="#d1000f"/>
        <path id="Path_7132" data-name="Path 7132" d="M24.261,51.52c-.138-.421-.453-.821-.963-.66a.652.652,0,0,0-.429.736l-.291-.044a3.232,3.232,0,0,0-.6-1.117l-.822.453a2.833,2.833,0,0,1,.466.882,1.556,1.556,0,0,1-1.1,2.115,1.567,1.567,0,0,1-2.155-1.051,2.487,2.487,0,0,1-.122-1l-.967.061a3.07,3.07,0,0,0,.173,1.293,2.663,2.663,0,0,0,3.519,1.857,2.422,2.422,0,0,0,1.767-2.908l.7.081c-.089-.425-.061-.623.093-.67.126-.041.214.06.262.206a1.049,1.049,0,0,1,.029.449h.505a1.415,1.415,0,0,0-.064-.68" transform="translate(6.064 17.735)" fill="#d1000f"/>
        <path id="Path_7133" data-name="Path 7133" d="M22.06,50.247l-1.383-.141-.255-1.472,1.253-.627-.214-1.251-4.869,2.484.264,1.525,5.415.687Zm-3.426-.274c-.311-.033-.715-.045-1.031-.064l0-.016c.291-.13.66-.288.946-.433l1.035-.509.2,1.14Z" transform="translate(5.832 16.442)" fill="#d1000f"/>
        <path id="Path_7134" data-name="Path 7134" d="M21.443,43.985l-.991.037.078,2.074-4.222.162.044,1.184,5.217-.2Z" transform="translate(5.733 15.474)" fill="#d1000f"/>
        <rect id="Rectangle_8275" data-name="Rectangle 8275" width="1.185" height="5.219" transform="translate(22.019 58.638) rotate(-87.088)" fill="#d1000f"/>
        <path id="Path_7135" data-name="Path 7135" d="M22.828,40.93a.661.661,0,0,0-.711.466l-.292-.191A1.585,1.585,0,0,0,20.49,39.5c-.728-.109-1.266.25-1.735,1.116-.347.627-.537.9-.864.849-.272-.037-.466-.315-.393-.821a2.536,2.536,0,0,1,.406-1.047l-.907-.4a3.234,3.234,0,0,0-.453,1.278c-.178,1.222.393,2.055,1.274,2.185.748.109,1.307-.381,1.731-1.2.311-.586.534-.8.853-.761.34.049.518.369.441.9a3.046,3.046,0,0,1-.509,1.249l.93.375a3.361,3.361,0,0,0,.522-1.387l.565.365c.107-.412.218-.586.381-.563.13.02.165.15.142.3a.966.966,0,0,1-.171.414l.453.221a1.382,1.382,0,0,0,.243-.635c.064-.436-.045-.938-.571-1.015" transform="translate(5.801 13.786)" fill="#d1000f"/>
        <path id="Path_7136" data-name="Path 7136" d="M21.305,36.112l1.929.518.344-1.1-5.073-1.27-.456,1.472,1.492,1.043c.505.336,1.107.711,1.641,1.031l0,.02c-.619-.07-1.29-.105-1.913-.13l-1.82-.029-.464,1.5,4.89,1.865.324-1.045-1.869-.675c-.606-.231-1.371-.49-2.035-.728l0-.016c.688.085,1.453.134,2.088.153l2.095.066.27-.882-1.755-1.21c-.526-.371-1.173-.8-1.759-1.152l.007-.019c.725.221,1.457.425,2.063.59" transform="translate(5.967 12.038)" fill="#d1000f"/>
        <path id="Path_7137" data-name="Path 7137" d="M24.549,33.259l.573-1.132-5.387-.911-.7,1.379,3.939,3.778.55-1.088L22.5,34.347l.676-1.335Zm-2.762.538-.845-.777c-.235-.21-.55-.456-.793-.666l.008-.012c.311.068.7.161,1.016.218l1.136.206Z" transform="translate(6.69 10.976)" fill="#d1000f"/>
        <path id="Path_7138" data-name="Path 7138" d="M23.866,25.954l-.761,1,1.375,1.88c.365.5.761,1.006,1.181,1.492l-.016.016a18.929,18.929,0,0,0-1.767-.756l-2.14-.833-.785,1.031,5.17,1.828.833-1.1Z" transform="translate(7.364 9.124)" fill="#d1000f"/>
        <path id="Path_7139" data-name="Path 7139" d="M29,26.628l-1.513,1.521-.877-.874,1.35-1.363-.684-.676L25.927,26.6l-.769-.765,1.432-1.443-.688-.683L23.634,26l3.709,3.676,2.342-2.365Z" transform="translate(8.306 8.334)" fill="#d1000f"/>
        <path id="Path_7140" data-name="Path 7140" d="M31.813,23.7c-.429-.6-1.06-.736-2.006-.477-.7.186-1.023.238-1.218-.033-.157-.223-.093-.554.324-.853a2.484,2.484,0,0,1,1.032-.433l-.34-.93a3.213,3.213,0,0,0-1.234.561,1.714,1.714,0,0,0-.691,2.43c.441.616,1.181.676,2.063.418.639-.183.95-.175,1.14.089s.093.627-.344.942a3.049,3.049,0,0,1-1.253.5l.371.934a3.474,3.474,0,0,0,1.387-.6c1.165-.837,1.278-1.832.769-2.544" transform="translate(9.636 7.373)" fill="#d1000f"/>
        <path id="Path_7141" data-name="Path 7141" d="M35.148,20.689a2.433,2.433,0,0,0-3.418-1.2,2.529,2.529,0,0,0-.99,3.6,2.433,2.433,0,0,0,3.4,1.222,2.483,2.483,0,0,0,1-3.62m-1.383,2.762c-.7.365-1.456-.056-1.929-.963s-.4-1.787.3-2.156,1.488.134,1.921.963c.47.9.412,1.787-.295,2.156" transform="translate(10.678 6.743)" fill="#d1000f"/>
        <path id="Path_7142" data-name="Path 7142" d="M38.258,20.865c-.247-.7-.817-1-1.8-1.019-.724-.016-1.047-.057-1.161-.373-.089-.254.068-.558.55-.728a2.5,2.5,0,0,1,1.111-.13l-.068-.982a3.086,3.086,0,0,0-1.342.194c-1.161.408-1.639,1.3-1.344,2.136.255.715.946.982,1.865.978.666,0,.963.1,1.072.4s-.086.628-.6.81a3.042,3.042,0,0,1-1.342.126l.1,1a3.46,3.46,0,0,0,1.5-.194c1.35-.474,1.738-1.4,1.451-2.224" transform="translate(12.001 6.195)" fill="#d1000f"/>
        <path id="Path_7143" data-name="Path 7143" d="M41.3,16.562,40,16.841l-.25,1.335c-.074.4-.134.72-.179,1.06l-.016,0c-.2-.3-.363-.554-.6-.89l-.784-1.116-1.319.283,2.261,2.669.452,2.086,1.15-.247L40.258,19.9Z" transform="translate(12.959 5.823)" fill="#d1000f"/>
        <path id="Path_7144" data-name="Path 7144" d="M43.076,16.351l-1.542.142-1.116,5.343,1.217-.113.251-1.367,1.488-.134.522,1.3,1.266-.117Zm-1.1,3.11.206-1.128c.06-.311.1-.713.15-1.028h.015c.107.3.231.68.352.979l.425,1.072Z" transform="translate(14.212 5.749)" fill="#d1000f"/>
        <path id="Path_7145" data-name="Path 7145" d="M45.506,20.54l.177-4.226L44.5,16.265l-.218,5.217,3.259.134.04-.991Z" transform="translate(15.577 5.719)" fill="#d1000f"/>
        <path id="Path_7146" data-name="Path 7146" d="M50.895,20.113l.785.178-.239,1.068a1.694,1.694,0,0,1-.587-.052,1.572,1.572,0,0,1-1.225-2.03,1.584,1.584,0,0,1,2.059-1.27,2.949,2.949,0,0,1,1.136.489l.449-.87a3.552,3.552,0,0,0-1.356-.565,2.693,2.693,0,0,0-3.509,2,2.538,2.538,0,0,0,.3,2.014,2.915,2.915,0,0,0,1.917,1.152,5.743,5.743,0,0,0,1.763.1l.606-2.682-1.9-.429Z" transform="translate(16.991 5.963)" fill="#d1000f"/>
        <path id="Path_7147" data-name="Path 7147" d="M56.8,17.7a.53.53,0,0,0-.388.987.512.512,0,0,0,.675-.3A.519.519,0,0,0,56.8,17.7m-1.492-.586a.532.532,0,1,0-.388.991.533.533,0,0,0,.388-.991M56.4,19.007l-1.1,2.8c-.335.856-.812,1.136-1.387.909s-.711-.773-.384-1.61l1.1-2.794-1.1-.433-1.064,2.709c-.61,1.548-.153,2.507,1.072,2.993,1.266.5,2.3.081,2.892-1.42l1.072-2.725Z" transform="translate(18.346 6.001)" fill="#d1000f"/>
        <path id="Path_7148" data-name="Path 7148" d="M60.238,20.937l-1.69,1.6c-.453.425-.9.882-1.327,1.359l-.023-.012c.218-.623.376-1.221.53-1.847l.55-2.228-1.121-.647L56,24.52l1.193.688,4.129-3.644Z" transform="translate(19.688 6.736)" fill="#d1000f"/>
        <path id="Path_7149" data-name="Path 7149" d="M63.353,24.118l.59-.769-2.559-1.957-3.171,4.145,2.641,2.022.59-.769-1.7-1.3.752-.987,1.525,1.169.586-.763-1.528-1.165.658-.862Z" transform="translate(20.462 7.519)" fill="#d1000f"/>
        <path id="Path_7150" data-name="Path 7150" d="M66.494,25.814,65.41,26.886a19.039,19.039,0,0,0-1.476,1.6l-.016-.016a15.17,15.17,0,0,0,.672-1.864l.6-2.116-.967-.978-3.711,3.668.759.773,1.117-1.109c.606-.6,1.12-1.124,1.589-1.633l.02.012a19.119,19.119,0,0,0-.672,1.94l-.651,2.208.874.882,3.713-3.668Z" transform="translate(21.261 8.263)" fill="#d1000f"/>
        <path id="Path_7151" data-name="Path 7151" d="M68,27.6l-.707-.95-4.178,3.134,1.958,2.605.792-.6-1.245-1.658Z" transform="translate(22.19 9.368)" fill="#d1000f"/>
        <path id="Path_7152" data-name="Path 7152" d="M70.666,29.135a.53.53,0,1,0-.178.724.517.517,0,0,0,.178-.724m-1.476.2-4.44,2.746.623,1.008,4.44-2.743Z" transform="translate(22.758 10.156)" fill="#d1000f"/>
        <path id="Path_7153" data-name="Path 7153" d="M71.454,33.3l-2.078-.307c-.218-.025-.441-.057-.672-.072l-.012-.02,2.078-1.008-.513-1.051-4.694,2.282.513,1.051,1.532-.744.692.161-1.472,2.136.6,1.237,1.9-2.944,2.754.583Z" transform="translate(23.039 10.841)" fill="#d1000f"/>
        <path id="Path_7154" data-name="Path 7154" d="M72.834,37.021a8.993,8.993,0,0,0-.513-1.445l-4.937,1.379a8.682,8.682,0,0,0,.27,1.249,3.3,3.3,0,0,0,1,1.853,1.382,1.382,0,0,0,1.213.223,1.3,1.3,0,0,0,.959-1.342l.016,0a1.18,1.18,0,0,0,1.307.526,1.136,1.136,0,0,0,.817-.878,2.886,2.886,0,0,0-.134-1.561m-3.251,2.054c-.53.146-.849-.254-1-.767-.052-.2-.089-.328-.109-.445l1.42-.4.109.389c.157.569.081,1.08-.425,1.221m2.107-.715c-.371.105-.707-.15-.874-.744l-.105-.375,1.173-.324a3.531,3.531,0,0,1,.163.477c.145.513.023.862-.356.967" transform="translate(23.686 12.51)" fill="#d1000f"/>
        <path id="Path_7155" data-name="Path 7155" d="M73.563,40.377l-5.384-.9.162,1.214,1.375.194.194,1.484-1.274.573L68.8,44.2l4.963-2.286Zm-1.744,1.237-1.056.466-.15-1.146,1.142.167c.307.044.711.068,1.027.105l0,.016c-.3.117-.672.258-.967.392" transform="translate(23.966 13.881)" fill="#d1000f"/>
        <path id="Path_7156" data-name="Path 7156" d="M73.849,44.547l.016-1.173-5.217-.064-.016,1.169,1.7.019.546.457L68.608,46.2l-.016,1.379,3.02-1.783,2.2,1.756.016-1.449-1.719-1.2c-.182-.117-.367-.247-.565-.365v-.025Z" transform="translate(24.114 15.232)" fill="#d1000f"/>
        <path id="Path_7157" data-name="Path 7157" d="M68.79,46.455l-.194,1.21,1.266.578-.239,1.476-1.387.187-.2,1.253,5.411-.769.247-1.528Zm3.915,2.993c-.32.029-.716.056-1.039.1l-1.144.142.186-1.137,1.043.482c.283.134.664.27.954.4Z" transform="translate(23.915 16.336)" fill="#d1000f"/>
        <path id="Path_7158" data-name="Path 7158" d="M70.688,53.611l2.156-.449.421-1.309-4.97-1.6-.332,1.031,1.5.481c.808.259,1.516.47,2.183.651v.025a20.484,20.484,0,0,0-2.035.3l-2.256.449-.381,1.177,4.97,1.6.332-1.031-1.451-.47a18.715,18.715,0,0,0-2.1-.567l.008-.023a15.271,15.271,0,0,0,1.961-.264" transform="translate(23.536 17.666)" fill="#d1000f"/>
        <path id="Path_7159" data-name="Path 7159" d="M67.087,53.836,65.679,56.78l.9.425.893-1.872,3.814,1.82.511-1.068Z" transform="translate(23.083 18.94)" fill="#d1000f"/>
        <rect id="Rectangle_8276" data-name="Rectangle 8276" width="1.184" height="5.22" transform="translate(87.863 77.188) rotate(-59.41)" fill="#d1000f"/>
        <path id="Path_7160" data-name="Path 7160" d="M68.322,62.736a.952.952,0,0,0,.128,1.451l.365-.485a.435.435,0,0,1,0-.6.415.415,0,0,1,.563-.153l.371-.5a.934.934,0,0,0-1.431.287M67.529,58.8a2.524,2.524,0,0,0-1.961-.55,2.9,2.9,0,0,0-1.837,1.278,5.9,5.9,0,0,0-.808,1.569l2.2,1.651,1.169-1.558-.74-.553-.482.647-.874-.655a1.505,1.505,0,0,1,.284-.509,1.7,1.7,0,0,1,2.674,2.1,2.93,2.93,0,0,1-.911.841l.606.765a3.587,3.587,0,0,0,1.076-1.008,2.7,2.7,0,0,0-.4-4.02" transform="translate(22.109 20.465)" fill="#d1000f"/>
        <path id="Path_7161" data-name="Path 7161" d="M62.582,60.621l-.808.87,3.818,3.562.8-.87Z" transform="translate(21.722 21.319)" fill="#d1000f"/>
      </g>
    </g>
  </g>
</svg>
